# xmcd CD database file
#
# Track frame offsets:
#	150
#	30600
#	66975
#	93457
#	120640
#	157212
#	190432
#	222142
#	245222
#	270732
#	294512
#
# Disc length: 4415 seconds
#
# Revision: 0
# Processed by: cddbd v1.4PL0 Copyright (c) Steve Scherf et al.
# Submitted via: CDex 1.50Beta7
#
DISCID=ae113d0b
DTITLE=Swedish Jazz Kings - The Swedish Jazz Kings "Live"
DYEAR=1900
DGENRE=Jazz
TTITLE0=Mississippi Blues
TTITLE1=Chattanooga Stomp
TTITLE2=Santa Claus Blues
TTITLE3=Weary Blues
TTITLE4=Texas Moaner Blues
TTITLE5=Papa Dip
TTITLE6=Melancholy Blues
TTITLE7=Ory's Creole Trombone
TTITLE8=Georgia Bo-Bo
TTITLE9=My Sweet Lovin' Man
TTITLE10=Old Fashioned Love
EXTD=
EXTT0=
EXTT1=
EXTT2=
EXTT3=
EXTT4=
EXTT5=
EXTT6=
EXTT7=
EXTT8=
EXTT9=
EXTT10=
PLAYORDER=
